<svg xmlns="http://www.w3.org/2000/svg" version="1.0" width="989.000000" height="1280.000000" preserveAspectRatio="xMidYMid meet"><rect id="backgroundrect" width="100%" height="100%" x="0" y="0" fill="none" stroke="none"/>

<g class="currentLayer" style=""><title>Layer 1</title><g transform="translate(0,1280) scale(0.10000000149011612,-0.10000000149011612) " fill="#ffffff" stroke="none" id="svg_1" class="selected" fill-opacity="1">
<path d="M4613,12608.54700756073 c-112,-40 -196,-93 -279,-175 c-125,-123 -191,-245 -234,-431 c-12,-49 -32,-108 -45,-133 c-14,-24 -25,-49 -24,-55 c0,-6 5,0 11,14 c6,14 12,20 15,13 c5,-15 -31,-86 -72,-140 c-18,-24 -38,-63 -44,-88 c-6,-24 -20,-59 -31,-77 c-48,-79 -55,-97 -40,-111 c7,-6 10,-7 7,-1 c-3,6 0,11 8,11 c16,0 6,-26 -18,-45 c-8,-7 -22,-30 -32,-53 c-18,-40 -18,-43 -1,-92 c16,-45 16,-51 2,-59 c-9,-5 -21,-18 -26,-29 c-11,-19 -10,-19 26,-4 c43,18 38,20 64,-31 c13,-27 19,-33 19,-19 c1,11 -3,26 -8,34 c-7,11 -3,18 16,28 c34,17 33,18 33,-18 c0,-17 7,-37 15,-45 c13,-14 15,-12 15,18 c0,26 3,30 11,18 c8,-11 9,-7 6,18 c-5,42 8,29 22,-22 c10,-37 7,-48 -30,-133 c-24,-54 -59,-113 -83,-141 c-23,-26 -51,-60 -63,-77 c-28,-41 -135,-277 -128,-283 c3,-3 5,1 5,8 c0,7 2,11 5,8 c3,-2 -2,-36 -11,-74 c-24,-104 -28,-144 -14,-144 c8,0 10,-12 6,-37 c-3,-21 0,-63 7,-94 c12,-49 12,-60 -2,-85 c-26,-50 -19,-165 17,-266 c35,-100 51,-133 52,-106 c0,11 6,15 19,11 c15,-4 24,-22 35,-73 c9,-38 16,-88 16,-111 c0,-22 7,-68 16,-101 c9,-37 13,-83 10,-120 c-5,-63 0,-92 14,-83 c5,3 11,-3 14,-12 c7,-22 56,-27 56,-7 c0,8 7,17 15,20 c8,4 15,10 15,15 c0,5 13,27 29,49 l29,40 l17,-44 c14,-35 22,-43 41,-43 c14,0 27,-2 29,-5 c2,-2 23,-62 45,-134 c97,-307 119,-468 82,-590 c-28,-91 -69,-154 -100,-154 c-18,0 -22,-4 -17,-19 c4,-14 -6,-29 -37,-56 c-62,-53 -84,-62 -236,-101 c-146,-36 -245,-78 -339,-142 c-66,-45 -195,-175 -239,-242 c-122,-183 -162,-320 -171,-591 c-6,-189 5,-333 36,-483 c18,-86 29,-106 62,-106 c27,0 37,-20 66,-131 c22,-82 33,-106 50,-114 c19,-8 29,-39 72,-215 c28,-113 64,-284 81,-380 c38,-213 72,-358 150,-640 c76,-275 84,-319 83,-465 c-1,-167 -26,-331 -80,-514 c-119,-408 -137,-505 -136,-716 c1,-201 5,-222 173,-865 c29,-107 69,-257 91,-334 c21,-76 39,-152 39,-168 c0,-78 -45,-197 -140,-368 c-93,-168 -121,-295 -85,-395 c8,-22 12,-54 9,-72 c-12,-62 45,-135 116,-150 c32,-6 34,-8 44,-55 c3,-15 27,-57 51,-93 c63,-91 80,-139 119,-337 c39,-192 72,-275 157,-389 c46,-61 55,-69 85,-69 c23,0 38,6 46,19 c12,19 13,19 35,-6 c22,-23 29,-24 71,-18 c52,9 56,8 94,-1 c19,-4 37,-1 54,11 c21,14 31,15 54,5 c21,-9 33,-9 50,0 c17,9 25,9 39,-4 c11,-10 36,-16 65,-16 c39,0 53,5 77,29 c16,16 29,38 29,49 c0,19 -66,112 -89,126 c-5,4 -19,36 -32,73 c-12,37 -42,110 -66,162 c-55,117 -74,179 -108,341 c-15,69 -45,179 -66,245 c-33,99 -42,141 -49,241 c-5,70 -21,175 -39,250 c-47,201 -49,247 -13,384 c46,174 171,418 293,570 c138,173 264,312 531,587 c400,410 550,619 683,948 c40,99 80,176 137,262 c86,133 126,220 135,292 c5,46 -34,461 -63,666 c-22,157 -188,984 -230,1149 c-20,76 -47,170 -60,209 c-30,87 -24,99 65,141 c33,16 61,35 61,41 c0,22 -184,253 -285,357 c-139,145 -152,185 -123,386 c14,103 2,216 -43,387 c-20,80 -29,132 -25,156 c9,59 55,208 88,286 c25,62 36,76 64,88 c19,8 38,24 43,37 c5,13 29,38 55,56 c25,18 44,37 41,42 c-3,5 15,38 40,74 c25,37 45,70 45,74 c0,4 9,13 21,20 c16,11 20,21 16,45 c-6,39 20,93 74,158 c22,26 39,56 39,68 c0,11 11,45 25,74 c25,56 25,57 29,152 c3,80 4,82 20,59 c19,-26 28,-14 34,45 c5,53 -18,137 -49,182 l-18,26 l52,24 c28,13 97,54 152,90 c55,37 111,70 125,74 c14,4 43,16 65,27 c82,41 106,86 65,123 c-26,23 -70,15 -154,-30 c-77,-40 -163,-68 -172,-54 c-3,5 3,38 14,72 c138,427 153,527 81,527 c-17,0 -30,-28 -60,-124 c-16,-54 -99,-230 -105,-224 c-2,3 5,27 16,53 c30,71 90,279 90,314 c0,21 -7,34 -22,42 c-29,16 -49,-10 -79,-99 c-12,-37 -33,-92 -47,-122 c-59,-131 -84,-181 -88,-178 c-2,2 0,59 5,126 c10,149 5,186 -29,190 c-16,2 -32,15 -45,37 c-19,33 -124,162 -175,215 c-24,25 -25,29 -12,60 c14,36 25,127 42,354 c10,129 9,161 -4,229 c-9,44 -19,84 -22,89 c-3,5 -13,58 -20,116 c-8,59 -17,127 -21,152 c-3,25 -9,50 -14,56 c-5,6 -8,24 -8,40 c3,110 -27,222 -76,284 c-7,8 -22,45 -34,81 c-43,130 -101,186 -241,230 c-59,18 -86,33 -125,70 c-27,26 -63,54 -80,62 c-81,40 -339,50 -432,17 zm-720,-1267 c-3,-27 -10,-49 -15,-51 c-4,-2 -8,-8 -8,-14 c0,-6 7,-7 16,-4 c14,5 15,4 5,-8 c-9,-10 -9,-15 0,-18 c7,-2 6,-8 -5,-17 c-14,-12 -16,-11 -17,5 c-1,11 -1,22 0,27 c0,4 -3,7 -8,7 c-16,0 -21,29 -10,58 c9,24 37,62 45,62 c2,0 1,-21 -3,-47 zm17,-163 c0,-5 -5,-10 -11,-10 c-5,0 -7,5 -4,10 c3,6 8,10 11,10 c2,0 4,-4 4,-10 zm-7,-497 c-3,-9 -21,-41 -40,-71 c-18,-31 -33,-60 -33,-66 c0,-5 -2,-7 -5,-4 c-8,8 13,57 47,111 c31,48 42,59 31,30 zm1577,-436 c0,-13 -29,12 -42,37 c-10,19 -8,18 16,-3 c14,-14 26,-29 26,-34 zm-1318,-424 c2,-16 -2,-46 -8,-68 l-12,-40 l-1,68 c-1,66 13,93 21,40 zm1489,-890 c-12,-20 -14,-14 -5,12 c4,9 9,14 11,11 c3,-2 0,-13 -6,-23 zm17,-93 c15,0 15,1 -8,-44 c-10,-21 -29,-45 -41,-54 l-21,-15 l7,64 c9,78 12,85 34,65 c10,-9 23,-16 29,-16 zm-48,-145 c-7,-8 -17,-15 -22,-15 c-6,0 -5,7 2,15 c7,8 17,15 22,15 c6,0 5,-7 -2,-15 zm-999,-2446 c110,-215 586,-1194 613,-1259 c27,-67 73,-221 83,-276 c10,-62 -47,-144 -225,-324 c-206,-208 -280,-328 -370,-605 c-64,-195 -144,-389 -244,-589 c-75,-151 -195,-356 -208,-356 c-6,0 -5,146 4,725 c5,289 16,407 56,585 c63,274 72,324 80,430 c5,71 20,159 38,230 c52,196 57,255 52,580 c-2,162 -4,432 -4,600 l1,305 l24,37 c13,20 28,36 33,35 c5,-2 35,-55 67,-118 z" id="svg_2" fill="#ffffff" fill-opacity="1"/>
<path d="M3973,11786.54700756073 c-14,-18 -34,-80 -28,-86 c2,-3 8,4 11,14 c4,10 13,34 20,52 c14,34 13,40 -3,20 z" id="svg_3" fill="#ffffff" fill-opacity="1"/>
<path d="M4009,11781.54700756073 c-13,-16 -12,-17 4,-4 c9,7 17,15 17,17 c0,8 -8,3 -21,-13 z" id="svg_4" fill="#ffffff" fill-opacity="1"/>
<path d="M3711,10472.54700756073 c0,-11 3,-14 6,-6 c3,7 2,16 -1,19 c-3,4 -6,-2 -5,-13 z" id="svg_5" fill="#ffffff" fill-opacity="1"/>
</g></g></svg>