<?xml version="1.0" encoding="utf-8"?>
<!-- Generator: Adobe Illustrator 15.0.2, SVG Export Plug-In . SVG Version: 6.00 Build 0)  -->
<!DOCTYPE svg PUBLIC "-//W3C//DTD SVG 1.1//EN" "http://www.w3.org/Graphics/SVG/1.1/DTD/svg11.dtd">
<svg version="1.1" id="Layer_1" xmlns="http://www.w3.org/2000/svg" xmlns:xlink="http://www.w3.org/1999/xlink" x="0px" y="0px"
	 width="595.28px" height="595.28px" viewBox="0 0 595.28 595.28" enable-background="new 0 0 595.28 595.28" xml:space="preserve">
<g>
	<path fill-rule="evenodd" clip-rule="evenodd" fill="#1B130C" d="M403.546,173.021c-5.911,2.164-12.015,5.279-17.911,6.217
		c-7.622,1.213-34.473,1.56-34.473,1.56s-36.203,3.291-39.322,4.331c-3.117,1.04-1.732,19.054,6.583,29.794
		c8.314,10.74,21.479,30.835,31.874,39.496c10.394,8.662,14.897,23.212,15.243,30.834c0.114,2.495,0.339,7.57,0.419,13.44
		l22.632,17.684c-7.356,0-15.913-0.12-22.771-4.561c-0.34,8.171-1.754,17.591-3.94,19.775c-2.186,2.186-8.975-0.238-18.374-0.366
		c-3.573,5.616-5.235,14.97-6.104,19.71c-0.953,5.197-0.953,6.236-0.953,5.197s-0.592-14.291-3.811-17.93
		c-3.218-3.637-3.658-4.324-6.09-5.643c-28.426-5.522-45.487,31.836-52.124,45.177c0,0-25.862-11.818-52.196-4.815
		c-26.334,7.005-39.533,5.498-46.893,5.498c-5.344,0-9.95-0.832-14.476-1.808c-6.594-1.422-13.017-3.15-21.307-3.059
		c-3.113,0.035-6.271,0.16-9.364,0.525c-2.192,0.258-4.858,0.676-6.89,1.563c-0.771,0.337-1.942,0.966-2.099,1.899
		c-0.157,0.938,14.984,11.222,17.941,12.964l3.328,1.6c5.346,1.238,11.9,0.897,16.999,1.363c10.756,0.981,19.618,0.394,30.276-0.036
		c12.694-0.511,19.363,1.515,31.716,4.202c10.914,2.373,21.695,4.824,32.663,7.023c8.852,1.777,20.471,4.119,29.372,4.681
		c14.051,0.888,23.651-7.165,32.68-16.938c10.387-11.243,19.92-23.624,16.869-39.851c-0.69-3.68-2.279-7.877-2.668-11.346
		c2.092,5.861,4.346,12.627,4.256,18.859c-0.194,13.474-9.906,25.688-18.672,35.097c-9.661,10.371-19.082,17.364-33.811,16.309
		c-10.304-0.739-22.829-3.191-33.029-5.204c-10.496-2.071-20.644-4.693-31.043-6.957c-12.617-2.747-19.485-3.125-32.271-2.712
		c-12.463,0.401-22.358,0.579-34.802-1.476c-5.792-0.957-11.739-2.28-17.301-4.434c-3.675-0.788-7.44-1.586-10.673-2.431
		c-6.354-0.376-13.694-2.265-20.865-2.907c-0.097-0.001-0.195-0.01-0.292-0.026c-4.486-0.397-16.265-2.273-20.761-2.167
		c-6.723,0.161-20.646,0.107-9.736,7.996l4.146,2.467c9.986,2.285,25.895,3.569,35.958,5.744
		c10.061,2.176,56.409,15.29,77.542,19.795c21.134,4.504,32.221-0.693,52.314,1.731c20.095,2.425,52.315,11.087,78.992,7.969
		c26.676-3.118,41.229-3.812,52.66-11.434c1.466-0.976,2.747-1.891,3.885-2.769c-8.359-1.048-21.984-3.668-31.418-9.327
		c-12.126-7.276-13.165-10.74-13.165-10.74l50.08,14.826c0.46-0.569,0.888-1.148,1.293-1.744
		c-10.044-1.299-42.192-17.933-42.192-17.933s0,0,10.566,4.158c9.062,3.564,25.893,5.092,36.404,4.69
		c0.753-1.616,1.586-3.404,2.562-5.414c6.236-12.818,9.229-26.688,14.146-31.604c4.916-4.917,23.329-13.596,35.327-22.973
		c-3.527,0.417-7.64,0.03-12.218-2.123c-8.835-4.158-11.779-11.26-19.401-16.11s37.417,7.622,39.842,6.235
		c0.587-0.334,0.89,0.052,1.012,0.829c0.306-0.486,0.602-0.975,0.883-1.465c11.086-19.401,11.086-20.44,11.086-20.44
		s1.732,30.487,4.504,40.881c2.772,10.393,30.332,68.989,38.647,78.69c8.314,9.7,12.628,11.04,18.517,8.962
		c5.891-2.078,13.166-0.693,16.977-0.693c3.812,0,5.198-2.078,0.347-3.464c-4.85-1.386-9.007-1.732-9.007-1.732
		s13.511-8.661,19.054-10.047c5.544-1.386,7.275-4.851,1.732-4.505c-5.543,0.348-10.047,1.732-10.047,1.732s-1.386-3.811-5.89-2.078
		S530.278,415,530.278,415s-5.543-0.692-8.314,0.346c-2.771,1.04-9.933,5.544-12.704,0.693c-2.771-4.85-5.658-15.937-9.815-41.228
		c-4.157-25.292-5.89-29.796-11.087-39.149c-1.529-2.752-2.338-9.044-2.789-16.756l-0.001,0.008l-0.001,0.008l-0.001,0.008
		l-0.001,0.008l-0.001,0.007v0.002l-0.001,0.008l-0.002,0.009l-0.002,0.016l-0.001,0.008l-0.001,0.007v0.002l-0.002,0.009v0.008
		l-0.004,0.027l-0.001,0.005v0.003l-0.002,0.009l-0.001,0.009v0.01l-0.003,0.009l-0.001,0.009v0.004v0.006l-0.002,0.008l-0.001,0.01
		l-0.001,0.01l-0.002,0.009l-0.001,0.011l-0.001,0.004l-0.001,0.005l-0.001,0.01l-0.002,0.01v0.009l-0.002,0.01l-0.002,0.011v0.005
		l-0.001,0.005l-0.001,0.011l-0.002,0.01l-0.001,0.01l-0.001,0.011l-0.002,0.011l-0.001,0.004l-0.001,0.006l-0.001,0.011
		l-0.001,0.011l-0.001,0.011l-0.002,0.011l-0.002,0.011v0.003l-0.001,0.008l-0.002,0.011v0.012l-0.002,0.011l-0.002,0.012
		l-0.001,0.011l-0.001,0.002l-0.001,0.009l-0.002,0.012l-0.001,0.013l-0.002,0.011l-0.002,0.012v0.012l-0.001,0.001l-0.001,0.011
		l-0.002,0.013l-0.002,0.012l-0.001,0.012l-0.002,0.013l-0.002,0.012c-0.248-1.699-0.161-0.903-0.293-2.648
		c-0.325-4.299-0.681-8.593-1.009-12.891l-0.001-0.012l-0.001-0.012c-0.006-0.086-0.013-0.171-0.019-0.256l-0.001-0.012
		l-0.001-0.012l-0.001-0.012l-0.001-0.008v-0.004l-0.001-0.011l-0.001-0.012l-0.001-0.013l-0.001-0.012l-0.001-0.011l-0.001-0.011
		l-0.009-0.128l-0.001-0.011l-0.001-0.012v-0.012v-0.012l-0.011-0.139l-0.001-0.012l-0.001-0.011l-0.001-0.012
		c-0.459-6.537-0.274-11.564,0.062-18.203c0.4-7.918,1.851-20.204-4.182-26.355c-4.08-4.159-8.683-4.115-13.811-4.987
		c6.308-0.906,13.6,1.376,17.055,7.071c5.746,9.467,1.908,27.362,2.036,38.471c0.012,1.013,0.036,2.026,0.068,3.042
		c0.814-0.67,1.724-1.475,2.721-2.427c0.631,1.333,1.588,2.975,3.028,4.969c5.289,7.324,18.988,3.119,17.496-3.934
		s-6.918-2.984-6.918-2.984s0,0,2.577,0s-0.678,8.139-4.476,3.256c-3.797-4.883,5.697-11.394,3.798-26.043
		c-0.855-6.602-3.915-10.889-7.416-13.682c2.179-0.288,4.64-0.801,7.982-1.371c3.823-0.65,6.546,0.606,7.771,2.145
		c1.756,2.204-0.9,3.606-2.188,2.635c-1.285-0.973,0.14-1.906-0.604-1.561c-0.5,0.232-1.86,1.739-1.356,3.267
		c1.182,3.581,8.496,2.913,8.773-3.329c0.141-3.15-3.199-7.006-8.325-7.188c-1.38-0.05-2.578-0.105-3.619-0.171
		c-5.89-0.371-6.877-1.061-8.614-2.662c-1.631-1.504-2.611-5.453-1.174-7.384c4.158-5.585,7.448,0.847,9.377,2.914
		c6.229,6.678,15.099,1.897,13.438,2.001c-4.546,0.284-8.36-2.984-10.067-6.65c-1.851-3.978-1.729-6.966-1.396-10.23
		c2.288,8.429,8.781,17.414,18.729,14.374c4.716-1.44,8.052-6.198,8.16-11.354c0.052-2.435-1-4.64-3.361-6.695
		c-1.037-0.903-2.25-1.465-3.485-1.714c-3.545-0.71-7.272,1.171-7.544,5.081c-0.125,1.801,0.691,3.345,0.691,3.345
		s0.112-5.602,5.27-4.406c2.662,0.619,3.703,4.166,2.383,6.875c-1.238,2.54-4.645,4.316-7.973,3.016
		c-6.705-2.619-5.819-17.696-16.39-25.482c-2.899-2.135-6.358-3.154-12.305-3.102c0.05-0.064,2.069-12.026,8.253-8.533
		c4.1,2.318,1.273,5.596-1.504,5.003c-1.623-0.347-1.672-2.494-0.905-3.494c-0.573,0.198-2.616,2.484-1.465,4.763
		c2.008,3.976,7.176,3.588,9.665,0.466c2.164-2.714,2.247-7.771-2.804-10.342c-2.44-1.243-5.188-0.996-8.552,0.433
		c0.609-4.685-0.499-9.124-4.583-11.551c-4.379-2.603-8.456-1.826-10.982,0.068c-4.01,3.005-5.586,9.142-0.204,11.335
		c1.941,0.79,4.141-2.336,4.141-2.336c-3.147,1.918-6.225-3.432-1.4-4.724c2.969-0.795,7.494,1.423,6.688,7.644
		c-0.614,4.74-4.514,10.402-9.293,10.607c-2.426,0.104-5.249-0.929-7.774-4.53c-1.822-7.963,1.108-20.063-1.396-27.815
		c-7.206-22.312-28.172-15.127-37.893-17.665c-1.057-0.276-1.69-1.829-2.964-2.26C418.811,157.979,409.795,168.728,403.546,173.021
		L403.546,173.021z M429.127,288.359c-4.981,3.174-6.225,5.653-9.237,10.52c-0.63,1.019-1.167,1.916-1.643,2.756
		c-0.577,2.621-1.46,5.1-2.624,7.208c-0.844,1.527-3.361,5.006-5.217,4.992l0,0c0.571-0.709,1.381-1.227,2.208-2.263
		c0.543-0.679,1.027-1.465,1.461-2.329c0.024-0.19,0.062-0.437,0.118-0.785c0.358-2.266,1.186-4.773,2.335-7.234
		c0.499-2.797,0.731-5.582,0.788-7.82c0.16-6.257-1.121-8.709-3.445-14.214c1.974,2.093,2.959,3.896,3.887,6.625
		c1.106,3.258,1.477,7.156,1.188,11.037c1.715-2.656,3.737-5.018,5.845-6.641C426.473,288.911,426.999,288.643,429.127,288.359
		L429.127,288.359z M390.832,219.425c4.156,13.512,6.581,20.787,1.038,19.055c-8.073-2.522-8.642-6.916-5.736-8.516
		c2.094-1.152,3.264,1.896,3.425,3.252c0.112,0.951,1.682-0.497,1.872-2.631c0.132-1.453-0.995-3.625-1.237-4.011
		c-2.261-3.592-8.141-1.666-9.995-0.025c-2.652,2.35-1.702,7.102-1.859,7.269c6.446,3.065,13.856,9.414,18.167,13.394
		c17.057,15.75,9.758-9.372,9.73-9.388c-1.643-0.953-5.113,0.028-7.638-1.905c-2.234-1.71-3.354-7.032-3.829-9.817
		c-1.479-8.655-1.456-15.959,1.445-24.313c1.91-5.5,4.288-7.307,4.75-13.371c0.918,5.962-3.564,10.732-4.834,16.548
		c-1.599,7.333-1,20.277,2.037,27.177c2.084,4.733,5.002,2.526,8.357,4.541c2.887,1.733,2.395,5.669,2.46,8.62
		c0.058,2.591,0.323,10.254-3.824,9.061c-2.452-0.705-6.143-3.143-7.817-4.697c-4.433-4.112-8.015-7.423-12.924-11.105
		c-4.633-3.475-9.012-5.729-14.895-6.489l-30.143-25.984c0,0,17.669-5.89,27.023-10.74c9.354-4.851,22.867-5.89,29.795-6.583
		C396.922,197.175,386.137,204.169,390.832,219.425z"/>
	<path fill-rule="evenodd" clip-rule="evenodd" fill="#D21233" d="M340.941,331.677c-1.039,1.733-5.023,19.921-5.023,37.244
		c0,17.322,7.969,21.48,19.055,25.984c11.087,4.504,32.566,6.929,32.566,6.929l-7.622,11.605
		c-24.646-4.211-36.041-5.277-56.125-21.133c-1.539-1.215-2.131-2.43-2.325-3.379c6.892-8.32,13.011-18.197,13.164-28.863
		c0.104-7.258-4.122-22.309-11.532-28.041C323.099,332.023,336.61,330.639,340.941,331.677z"/>
	<path fill-rule="evenodd" clip-rule="evenodd" fill="#D21233" d="M165.463,374.463c-6.301-0.449-27.197-1.854-35.026,1.566
		c-8.969,3.917,3.919,12.836,8.436,15.496c0,0-29.709-8.747-35.945-12.212s-3.399-20.229,24.425-14.724
		c0.698,0.137,34.07,8.234,20.582,3.204c-2.92-1.089-11.314-4.331-11.314-4.331l1.559-2.425c0,0,5.457,2.165,11.52,2.858
		s9.18,3.465,11.086,4.677C162.691,369.786,165.463,374.463,165.463,374.463z"/>
	<path fill-rule="evenodd" clip-rule="evenodd" fill="#D21233" d="M102.189,383.708c-8.373-0.758-42.347-2.28-24.67,10.503
		c0,0-33.047-8.209-36.931-10.149c-3.884-1.941,3-9.532,6.708-11.297c3.706-1.765,10.943-2.294,15.179-1.06
		c4.237,1.236,10.944,3.178,15.18,3.707c4.236,0.529,4.505-0.1,0.093-1.688c-4.413-1.59-9.535-4.763-9.535-4.763l0.979-1.342
		c0,0,6.697,3.557,12.875,4.438c6.177,0.883,10.767,2.295,13.238,4.413S101.838,383.885,102.189,383.708z"/>
	<path fill-rule="evenodd" clip-rule="evenodd" fill="#D21233" d="M460.642,253.533c-1.11,22.21,12.927,72.582-17.323,81.436
		c-14.204,4.157-22.52-4.852-29.794-9.008c-7.276-4.158-5.197-6.236-22.867-7.969c-9.391-0.92-15.264-3.31-19.07-5.658
		c-10.572-6.523-9.499-14.455-4.987-25.862c1.031-2.609,17.642-27.929,20.246-30.841c5.891-6.583,8.489-7.882,8.489-7.882
		l3.984,3.508c0,0-11.433,7.146-11.433,19.964c0,12.819,13.857,21.134,20.787,30.488c6.928,9.354,6.582,9.008,6.582,9.008
		s6.583-2.771,16.63-4.851c10.047-2.078,12.818-2.425,16.977-8.661c12.509-18.762,7.624-19.446,6.583-43.672H460.642z"/>
</g>
</svg>
